<svg width="114" height="114" viewBox="0 0 114 114" fill="none" xmlns="http://www.w3.org/2000/svg">
<mask id="path-1-inside-1_4_64" fill="white">
<path fill-rule="evenodd" clip-rule="evenodd" d="M0 0H28.25H56.5V28.25V56.5V84.75H28.25H0V56.5H28.25V28.25H0V0Z"/>
</mask>
<path d="M0 0V-1H-1V0H0ZM56.5 0H57.5V-1H56.5V0ZM56.5 84.75V85.75H57.5V84.75H56.5ZM0 84.75H-1V85.75H0V84.75ZM0 56.5V55.5H-1V56.5H0ZM28.25 56.5V57.5H29.25V56.5H28.25ZM28.25 28.25H29.25V27.25H28.25V28.25ZM0 28.25H-1V29.25H0V28.25ZM28.25 -1H0V1H28.25V-1ZM56.5 -1H28.25V1H56.5V-1ZM57.5 28.25V0H55.5V28.25H57.5ZM57.5 56.5V28.25H55.5V56.5H57.5ZM57.5 84.75V56.5H55.5V84.75H57.5ZM28.25 85.75H56.5V83.75H28.25V85.75ZM28.25 83.75H0V85.75H28.25V83.75ZM1 84.75V56.5H-1V84.75H1ZM0 57.5H28.25V55.5H0V57.5ZM27.25 28.25V56.5H29.25V28.25H27.25ZM0 29.25H28.25V27.25H0V29.25ZM-1 0V28.25H1V0H-1Z" fill="#ED3434" mask="url(#path-1-inside-1_4_64)"/>
<mask id="path-3-outside-2_4_64" maskUnits="userSpaceOnUse" x="55.5" y="27.2501" width="59" height="87" fill="black">
<rect fill="white" x="55.5" y="27.2501" width="59" height="87"/>
<path fill-rule="evenodd" clip-rule="evenodd" d="M56.5 28.2501H84.75H113V56.5001H84.75V84.7501H113V113H84.75H56.5V84.7501V56.5001V28.2501Z"/>
</mask>
<path d="M56.5 28.2501V27.2501H55.5V28.2501H56.5ZM113 28.2501H114V27.2501H113V28.2501ZM113 56.5001V57.5001H114V56.5001H113ZM84.75 56.5001V55.5001H83.75V56.5001H84.75ZM84.75 84.7501H83.75V85.7501H84.75V84.7501ZM113 84.7501H114V83.7501H113V84.7501ZM113 113V114H114V113H113ZM56.5 113H55.5V114H56.5V113ZM84.75 27.2501H56.5V29.2501H84.75V27.2501ZM113 27.2501H84.75V29.2501H113V27.2501ZM114 56.5001V28.2501H112V56.5001H114ZM84.75 57.5001H113V55.5001H84.75V57.5001ZM85.75 84.7501V56.5001H83.75V84.7501H85.75ZM84.75 85.7501H113V83.7501H84.75V85.7501ZM112 84.7501V113H114V84.7501H112ZM113 112H84.75V114H113V112ZM56.5 114H84.75V112H56.5V114ZM55.5 84.7501V113H57.5V84.7501H55.5ZM55.5 56.5001V84.7501H57.5V56.5001H55.5ZM55.5 28.2501V56.5001H57.5V28.2501H55.5Z" fill="#ED3434" mask="url(#path-3-outside-2_4_64)"/>
</svg>
